<?xml version="1.0" encoding="UTF-8"?>
<svg version="1.1" xmlns="http://www.w3.org/2000/svg" width="330" height="330">
<path d="M0 0 C0.63244629 0.30663574 1.26489258 0.61327148 1.91650391 0.92919922 C16.48821185 8.09433422 28.88192834 17.28136148 40.52001953 28.56689453 C41.8960628 29.89935477 43.28918089 31.21411942 44.68359375 32.52734375 C70.98732748 57.8462263 88.58228646 96.201412 90.16113281 132.7277832 C90.49641684 163.25227506 87.58124627 190.15665342 74 218 C73.69336426 218.63244629 73.38672852 219.26489258 73.07080078 219.91650391 C65.90566578 234.48821185 56.71863852 246.88192834 45.43310547 258.52001953 C44.10064523 259.8960628 42.78588058 261.28918089 41.47265625 262.68359375 C16.1537737 288.98732748 -22.201412 306.58228646 -58.7277832 308.16113281 C-89.25227506 308.49641684 -116.15665342 305.58124627 -144 292 C-144.63244629 291.69336426 -145.26489258 291.38672852 -145.91650391 291.07080078 C-160.48821185 283.90566578 -172.88192834 274.71863852 -184.52001953 263.43310547 C-185.8960628 262.10064523 -187.28918089 260.78588058 -188.68359375 259.47265625 C-214.98732748 234.1537737 -232.58228646 195.798588 -234.16113281 159.2722168 C-234.49641684 128.74772494 -231.58124627 101.84334658 -218 74 C-217.69336426 73.36755371 -217.38672852 72.73510742 -217.07080078 72.08349609 C-209.90566578 57.51178815 -200.71863852 45.11807166 -189.43310547 33.47998047 C-188.10064523 32.1039372 -186.78588058 30.71081911 -185.47265625 29.31640625 C-138.32177789 -19.66854193 -59.90382512 -29.21949771 0 0 Z " fill="#FCFCFC" transform="translate(237,19)"/>
<path d="M0 0 C5.61 0 11.22 0 17 0 C17.33 1.32 17.66 2.64 18 4 C18.59643311 3.71632568 19.19286621 3.43265137 19.80737305 3.14038086 C26.32139668 0.25965201 31.72830593 -0.61291933 38.8125 -0.4375 C39.77446289 -0.42066162 40.73642578 -0.40382324 41.72753906 -0.38647461 C53.3631165 -0.05847743 62.39737901 0.92740395 70.96875 9.45703125 C76.03248298 15.79643543 78.12970544 23.62067094 78.12025452 31.66340637 C78.12231651 33.02418808 78.12231651 33.02418808 78.12442017 34.41246033 C78.11902725 35.88628929 78.11902725 35.88628929 78.11352539 37.38989258 C78.11367142 38.43425476 78.11381744 39.47861694 78.1139679 40.55462646 C78.11327209 44.00128263 78.10549518 47.44788454 78.09765625 50.89453125 C78.09579089 53.28635122 78.09436754 55.67817158 78.09336853 58.06999207 C78.08955264 64.36149147 78.07973024 70.65296774 78.06866455 76.94445801 C78.05843051 83.36596361 78.05386664 89.78747296 78.04882812 96.20898438 C78.03810716 108.80599974 78.02104184 121.40299794 78 134 C71.73 134 65.46 134 59 134 C58.99191315 132.64332214 58.98382629 131.28664429 58.97549438 129.88885498 C58.89807959 117.11640196 58.81035205 104.34405608 58.71247292 91.57174301 C58.66248272 85.00504426 58.6161528 78.43836182 58.578125 71.87158203 C58.54130679 65.53675356 58.49495606 59.20206059 58.44193649 52.86734772 C58.42337415 50.44801455 58.40827304 48.02865231 58.39665604 45.60927582 C58.37982529 42.22602907 58.35079739 38.84309391 58.31884766 35.45996094 C58.31668747 34.45511154 58.31452728 33.45026215 58.31230164 32.41496277 C58.30113815 31.49232132 58.28997467 30.56967987 58.2784729 29.61907959 C58.27294214 28.81896328 58.26741138 28.01884697 58.26171303 27.19448471 C57.96750644 24.72753888 57.28056927 23.11798499 56 21 C50.54606615 16.70973959 44.55393357 16.4072924 37.875 16.5625 C37.00746094 16.55541016 36.13992187 16.54832031 35.24609375 16.54101562 C29.34364831 16.5994112 24.76606661 17.28563195 20.36637878 21.60308838 C18.42363636 25.01106129 18.56043086 28.25363238 18.56762695 32.07324219 C18.5574353 32.88337265 18.54724365 33.69350311 18.53674316 34.52818298 C18.50659222 37.20115048 18.49734411 39.87375973 18.48828125 42.546875 C18.47143611 44.40205071 18.45328609 46.257215 18.43388367 48.11236572 C18.38635964 52.99164256 18.35656581 57.87087307 18.33044434 62.75030518 C18.30065096 67.73076527 18.25411642 72.71106572 18.20898438 77.69140625 C18.12292376 87.46087241 18.05713816 97.23032182 18 107 C12.06 107 6.12 107 0 107 C0 71.69 0 36.38 0 0 Z " fill="#060606" transform="translate(109,113)"/>
<path d="M0 0 C0 38.94 0 77.88 0 118 C10.23 118 20.46 118 31 118 C31 123.28 31 128.56 31 134 C14.83 134 -1.34 134 -18 134 C-18.33 95.39 -18.66 56.78 -19 17 C-25.93 16.67 -32.86 16.34 -40 16 C-40 5.70588235 -40 5.70588235 -36 1 C-25.26273364 -4.36863318 -12.00462874 0 0 0 Z " fill="#040404" transform="translate(96,113)"/>
<path d="M0 0 C9.24 0 18.48 0 28 0 C28 38.61 28 77.22 28 117 C38.56 117 49.12 117 60 117 C60 122.61 60 128.22 60 134 C43.5 134 27 134 10 134 C10 95.06 10 56.12 10 16 C6.7 16 3.4 16 0 16 C0 10.72 0 5.44 0 0 Z " fill="#050505" transform="translate(191,113)"/>
<path d="M0 0 C5.94 0 11.88 0 18 0 C18 9.57 18 19.14 18 29 C23.04180385 28.80324168 23.04180385 28.80324168 28.08081055 28.54956055 C32.17120839 28.46939723 33.60390521 28.68502036 36.9375 31.3359375 C40.76517265 36.28001467 41 39.72922899 41 46 C33.41 46 25.82 46 18 46 C18.08545672 54.94481718 18.17918316 63.88944221 18.28752708 72.83401203 C18.3375021 76.98720768 18.38383194 81.14037773 18.421875 85.29370117 C18.45871273 89.30086927 18.50506836 93.30782394 18.55806351 97.3148098 C18.57661555 98.84459888 18.59172053 100.37443373 18.60334396 101.90429115 C18.62019284 104.0448969 18.6492236 106.18501299 18.68115234 108.32543945 C18.69447601 109.54455521 18.70779968 110.76367096 18.7215271 112.01972961 C18.77917995 115.18322959 18.77917995 115.18322959 21 118 C24.71279469 119.23759823 28.31306346 119.35608897 32.1875 119.5625 C33.31188477 119.62727539 33.31188477 119.62727539 34.45898438 119.69335938 C36.30578375 119.79922685 38.15286834 119.9000976 40 120 C40.51257038 126.40712969 40.13597047 129.98670247 36 135 C33.81205683 137.18794317 28.96371179 136.27854848 25.9375 136.3125 C25.10283203 136.34150391 24.26816406 136.37050781 23.40820312 136.40039062 C17.41008978 136.46116652 12.98392451 135.42094922 8 132 C5.9765625 130 5.9765625 130 4.625 128 C4.16351563 127.34 3.70203125 126.68 3.2265625 126 C0.8646444 122.14871953 -0.2501003 119.54794385 -0.24050903 114.96331787 C-0.24325836 113.94812073 -0.24600769 112.93292358 -0.24884033 111.88696289 C-0.24164978 110.77925537 -0.23445923 109.67154785 -0.22705078 108.53027344 C-0.22734283 107.35926086 -0.22763489 106.18824829 -0.22793579 104.98175049 C-0.22654142 101.10755019 -0.21097487 97.23354174 -0.1953125 93.359375 C-0.19047242 90.67466336 -0.18863723 87.98995193 -0.18673706 85.30523682 C-0.18052266 78.95879558 -0.16411239 72.61242331 -0.14403808 66.26601243 C-0.12167784 59.03994837 -0.11068534 51.81388101 -0.10064721 44.58779097 C-0.07974612 29.72515575 -0.04416771 14.86258489 0 0 Z " fill="#060606" transform="translate(234,84)"/>
<path d="M0 0 C16.56985176 -1.66878466 16.56985176 -1.66878466 22.0546875 2.09765625 C24.37281988 4.94919971 26.20939991 7.79319802 28 11 C28.85078125 12.30710937 28.85078125 12.30710937 29.71875 13.640625 C31.2615965 16.04565042 32.65162804 18.48165607 34 21 C34.36738281 21.66902344 34.73476563 22.33804688 35.11328125 23.02734375 C43.40236754 39.70152891 42.66099557 58.18074493 42.57641602 76.29150391 C42.56266954 79.34403481 42.56959416 82.39531521 42.59692383 85.44775391 C42.84101749 112.7892449 40.51492134 137.43831945 22 159 C21.6390625 159.7321875 21.278125 160.464375 20.90625 161.21875 C18.11947996 163.82278102 15.68753006 163.40791396 11.98242188 163.3515625 C10.66081055 163.30128906 10.66081055 163.30128906 9.3125 163.25 C8.41982422 163.23195312 7.52714844 163.21390625 6.60742188 163.1953125 C4.40386496 163.14817759 2.20247399 163.08240657 0 163 C1.248013 160.36033072 2.58833938 158.0795828 4.390625 155.78515625 C21.42591821 133.65779169 23.18748956 111.49589889 23.18530273 84.46459961 C23.18747801 81.46778914 23.20566288 78.47135457 23.22460938 75.47460938 C23.253419 65.96767638 23.0536816 56.5392316 22.15625 47.0703125 C22.08427902 46.27858139 22.01230804 45.48685028 21.93815613 44.67112732 C20.19580885 28.41526504 11.76552838 15.24353888 1.50390625 2.8984375 C0 1 0 1 0 0 Z " fill="#060606" transform="translate(265,84)"/>
<path d="M0 0 C-1.98999919 3.46624041 -4.19506911 6.69432028 -6.56640625 9.91040039 C-11.04998188 15.99919647 -15.00314098 22.01981586 -18 29 C-18.47457642 30.04111938 -18.47457642 30.04111938 -18.95874023 31.10327148 C-24.31022262 45.9908069 -23.50017024 63.20164402 -23.44604492 78.76318359 C-23.43751138 82.49502399 -23.46645558 86.22533979 -23.49804688 89.95703125 C-23.57956329 117.11537757 -19.17658202 137.72407592 -2 159 C-0.99430054 160.32903964 0.00802892 161.66068258 1 163 C-16.4895245 164.62402728 -16.4895245 164.62402728 -21.8984375 161.125 C-23.95788302 158.52016773 -25.48861504 155.9540706 -27 153 C-28.08140593 151.31126421 -29.16467714 149.62372112 -30.25 147.9375 C-39.76680963 131.34738592 -42.12725986 114.87588373 -42.23828125 96.0234375 C-42.24235678 95.36855976 -42.2464323 94.71368202 -42.25063133 94.0389595 C-42.27134096 90.57106106 -42.28570587 87.10320039 -42.29516602 83.63525391 C-42.3040036 80.80560635 -42.32484511 77.9764534 -42.35668945 75.14697266 C-42.68668527 45.16870371 -42.68668527 45.16870371 -38 32 C-37.60095459 30.80769775 -37.20190918 29.61539551 -36.79077148 28.38696289 C-34.19642182 20.86340628 -30.56003132 14.48850272 -26 8 C-25.55914062 7.18789062 -25.11828125 6.37578125 -24.6640625 5.5390625 C-19.25077491 -2.98462238 -8.88961454 -0.63941283 0 0 Z " fill="#050505" transform="translate(64,84)"/>
<path d="M0 0 C5.94 0 11.88 0 18 0 C18 5.94 18 11.88 18 18 C12.06 18 6.12 18 0 18 C0 12.06 0 6.12 0 0 Z " fill="#030303" transform="translate(201,84)"/>
<path d="M0 0 C5.94 0 11.88 0 18 0 C18 5.94 18 11.88 18 18 C12.06 18 6.12 18 0 18 C0 12.06 0 6.12 0 0 Z " fill="#040404" transform="translate(78,84)"/>
<path d="M0 0 C0.66 0.99 1.32 1.98 2 3 C0.70700306 5.88437779 -0.65941363 7.87219421 -3 10 C-3.66 9.67 -4.32 9.34 -5 9 C-3.35 6.03 -1.7 3.06 0 0 Z " fill="#222222" transform="translate(281,222)"/>
<path d="M0 0 C0.66 1.32 1.32 2.64 2 4 C-0.31 5.65 -2.62 7.3 -5 9 C-3.7508258 5.54074837 -2.32472205 2.85306797 0 0 Z " fill="#DADADA" transform="translate(56,94)"/>
<path d="M0 0 C0.66 1.32 1.32 2.64 2 4 C-0.375 5.5625 -0.375 5.5625 -3 7 C-3.66 6.67 -4.32 6.34 -5 6 C-3.35 4.02 -1.7 2.04 0 0 Z " fill="#DFDFDF" transform="translate(64,84)"/>
</svg>
